<svg xmlns="http://www.w3.org/2000/svg" width="90" height="90" viewBox="0 0 90.000000 90.000000" preserveAspectRatio="xMidYMid meet" role="img" aria-hidden="true">
<g fill="#000000" stroke="none" transform="translate(0.000000,90.000000) scale(0.100000,-0.100000)">
<path d="M370 855 c-23 -23 -37 -32 -44 -25 -13 13 -83 13 -91 1 -3 -5 -20 -7
-38 -4 -38 6 -87 -27 -87 -58 0 -14 -7 -19 -28 -19 -38 0 -62 -28 -62 -73 0
-25 6 -40 20 -50 16 -11 18 -16 7 -20 -20 -8 -28 -58 -12 -82 11 -18 10 -24
-6 -44 -24 -30 -24 -56 1 -81 l20 -20 -20 -22 c-28 -30 -26 -74 6 -103 18 -17
24 -30 19 -44 -10 -31 11 -59 50 -67 31 -6 34 -8 28 -35 -3 -16 0 -35 6 -43
18 -21 70 -28 101 -13 23 12 30 12 45 0 28 -19 72 -16 88 7 14 20 15 20 78
-12 85 -42 155 -48 241 -19 75 26 115 58 153 125 26 44 29 61 33 162 4 107 3
115 -21 156 -14 24 -37 50 -51 58 -34 18 -33 24 9 50 62 38 65 44 65 133 0 93
-11 122 -59 154 -28 19 -48 23 -107 23 -67 0 -75 -2 -102 -29 -22 -22 -32 -27
-41 -18 -17 17 -103 47 -137 47 -21 0 -40 -10 -64 -35z m426 -1 c47 -22 64
-59 64 -139 0 -58 -3 -69 -26 -90 -15 -14 -32 -25 -39 -25 -7 0 -20 -9 -30
-20 -14 -15 -22 -17 -37 -9 -16 9 -18 20 -16 87 3 64 6 77 21 80 14 3 17 -4
17 -36 0 -44 18 -59 51 -42 16 9 19 22 19 74 0 72 -5 78 -69 94 -51 12 -72 5
-97 -34 -14 -20 -16 -41 -11 -114 5 -83 4 -90 -13 -90 -16 0 -19 12 -25 94 -9
113 3 160 43 175 42 15 111 13 148 -5z m-266 -16 l45 -23 6 -105 c6 -109 4
-124 -12 -115 -5 4 -9 40 -9 81 0 70 -2 76 -32 109 -43 45 -79 54 -106 25 -45
-49 -33 -155 18 -155 20 0 26 6 28 28 6 51 26 22 26 -38 1 -80 -19 -84 -84
-20 -43 43 -48 52 -53 103 -10 120 62 166 173 110z m-212 -30 c20 -20 14 -38
-12 -38 -27 0 -59 26 -51 41 9 13 49 11 63 -3z m465 -10 c15 -8 17 -20 15 -66
-3 -66 -22 -76 -26 -15 -3 37 -7 44 -29 49 -40 10 -53 -16 -53 -108 0 -78 -15
-106 -24 -45 -16 106 -7 178 25 198 14 8 64 2 92 -13z m-277 -22 c33 -33 34
-37 34 -110 0 -42 -4 -76 -9 -76 -12 0 -21 49 -14 81 7 37 -13 71 -40 67 -16
-2 -23 -11 -25 -31 -6 -46 -27 -25 -26 26 0 44 16 77 36 77 6 0 25 -15 44 -34z
m-292 18 c39 -15 -6 -71 -49 -60 -18 5 -25 13 -25 30 0 32 34 45 74 30z m114
-60 c-2 -9 -25 -23 -53 -32 -76 -26 -87 -53 -90 -215 -2 -73 2 -153 7 -178 11
-56 49 -95 102 -106 28 -6 41 -15 48 -32 8 -23 7 -24 -33 -18 -50 7 -114 47
-132 84 -10 19 -16 84 -20 208 -5 162 -4 185 13 222 24 54 45 65 153 82 5 0 7
-6 5 -15z m-193 -20 c39 -39 -17 -100 -69 -76 -28 13 -36 58 -14 80 17 17 64
15 83 -4z m205 -39 c0 -9 -9 -15 -22 -15 -57 -1 -67 -32 -67 -196 1 -143 5
-163 46 -201 12 -12 23 -27 23 -33 0 -18 -42 -1 -75 31 l-30 29 -3 163 -4 163
27 32 c24 28 42 37 88 41 9 0 17 -6 17 -14z m-6 -73 c-8 -2 -14 -9 -14 -17 0
-7 -7 -16 -16 -19 -23 -9 -34 -7 -34 5 0 6 7 8 16 5 12 -4 15 -2 10 9 -21 52
-21 51 -3 36 9 -7 18 -11 18 -7 1 3 3 11 4 16 1 6 3 13 4 18 1 4 8 -4 16 -18
12 -22 12 -25 -1 -28z m51 -21 c-7 -24 -78 -64 -103 -58 -12 3 -9 7 13 16 38
16 75 50 75 70 0 11 3 12 11 4 6 -6 8 -21 4 -32z m-275 0 c15 -28 13 -39 -11
-51 -37 -20 -67 28 -37 58 18 18 36 15 48 -7z m277 -60 c-25 -26 -48 -57 -51
-69 -5 -15 -15 -22 -32 -22 -21 0 -24 5 -24 33 0 31 4 35 41 47 23 8 54 26 68
41 46 47 44 19 -2 -30z m298 34 c72 -19 129 -54 156 -98 18 -28 20 -45 16
-132 -3 -88 -7 -108 -33 -155 -34 -62 -86 -104 -157 -125 -71 -21 -106 -19
-173 11 -78 34 -91 47 -127 124 -69 149 -16 331 109 375 52 19 137 18 209 0z
m-577 -77 c26 -26 8 -78 -27 -78 -8 0 -23 7 -32 16 -15 13 -16 21 -7 38 19 36
44 46 66 24z m207 -78 c3 -5 -3 -10 -14 -10 -12 0 -21 5 -21 10 0 6 6 10 14
10 8 0 18 -4 21 -10z m-175 -20 c0 -5 -4 -10 -10 -10 -5 0 -10 5 -10 10 0 6 5
10 10 10 6 0 10 -4 10 -10z m152 -32 c-4 -15 -2 -19 8 -13 8 5 11 3 8 -5 -7
-23 -25 -22 -31 1 -6 24 -1 39 13 39 4 0 6 -10 2 -22z m-178 -4 c18 -46 -34
-93 -69 -64 -19 16 -19 30 1 58 18 25 59 29 68 6z m26 -84 c0 -5 -7 -10 -16
-10 -8 0 -12 5 -9 10 3 6 10 10 16 10 5 0 9 -4 9 -10z m-2 -62 c3 -24 0 -28
-23 -28 -27 0 -41 20 -31 46 10 27 51 13 54 -18z m80 -58 c49 -40 -1 -95 -52
-57 -17 13 -17 15 -2 45 19 37 23 38 54 12z m136 -40 c13 -13 -3 -30 -29 -30
-27 0 -39 14 -31 36 6 15 40 12 60 -6z"/>
<path d="M472 515 c-59 -27 -77 -55 -91 -143 -7 -45 -6 -77 5 -129 8 -37 14
-69 14 -70 0 -1 14 -18 31 -38 42 -47 118 -70 203 -60 125 14 206 104 206 230
0 65 -17 106 -62 153 -60 61 -91 75 -179 78 -62 2 -85 -1 -127 -21z m189 -5
c19 -5 59 -31 88 -57 49 -45 53 -52 60 -107 9 -64 -1 -127 -25 -164 -8 -13
-36 -36 -62 -53 -41 -26 -54 -29 -126 -29 -100 0 -133 17 -167 87 -32 64 -34
209 -4 261 37 61 140 89 236 62z"/>
<path d="M500 467 c-50 -19 -65 -55 -65 -159 0 -86 1 -87 35 -124 79 -83 187
-85 273 -5 37 35 41 43 45 97 3 53 0 64 -28 106 -17 26 -47 57 -66 69 -43 26
-143 35 -194 16z m104 -22 c-1 -18 -34 -18 -34 0 0 10 7 15 18 13 9 -2 17 -8
16 -13z m-64 -10 c0 -8 -7 -15 -15 -15 -8 0 -15 7 -15 15 0 8 7 15 15 15 8 0
15 -7 15 -15z m130 -6 c0 -11 -27 -12 -34 0 -3 4 -3 11 0 14 8 8 34 -3 34 -14z
m-130 -29 c25 13 66 13 92 -1 15 -8 27 -8 47 1 23 10 28 9 50 -16 l24 -28 -29
-8 c-41 -12 -159 -10 -222 3 -48 10 -52 13 -46 32 12 41 24 47 45 26 15 -15
24 -17 39 -9z m98 -75 c121 0 155 -8 86 -21 -35 -6 -223 2 -256 12 -10 3 -18
12 -18 19 0 12 6 12 33 2 18 -7 84 -12 155 -12z m-68 -44 c0 -5 -7 -17 -16
-25 -14 -14 -25 -17 -79 -20 -32 -2 -18 17 14 19 19 2 38 10 43 19 10 17 38
22 38 7z m79 -13 c6 -16 55 -58 68 -58 21 0 15 -16 -13 -30 -17 -10 -27 -11
-32 -4 -4 6 -18 17 -30 23 -29 16 -75 0 -88 -30 -9 -19 -11 -18 -43 9 l-35 29
46 11 c36 9 48 18 58 42 11 25 16 29 39 23 14 -3 28 -10 30 -15z m55 -3 c11
-8 28 -15 38 -15 10 0 18 -4 18 -10 0 -5 -9 -10 -20 -10 -23 0 -70 28 -70 41
0 13 12 11 34 -6z"/>
</g>
</svg>
