<svg xmlns="http://www.w3.org/2000/svg" width="54" height="90" viewBox="0 0 54.000000 90.000000" preserveAspectRatio="xMidYMid meet" role="img" aria-hidden="true">
<g fill="#000000" stroke="none" transform="translate(0.000000,90.000000) scale(0.100000,-0.100000)">
<path d="M192 892 c-13 -2 -32 -18 -43 -35 -11 -19 -19 -25 -19 -16 0 21 -32
49 -57 49 -34 0 -54 -34 -60 -98 -5 -55 -3 -63 20 -86 31 -31 50 -33 77 -6 11
11 22 20 24 20 3 0 4 -50 3 -110 -1 -96 -3 -110 -16 -104 -42 18 -66 15 -91
-11 -21 -22 -25 -36 -25 -85 1 -43 6 -64 19 -79 27 -30 70 -27 95 7 l20 27 1
-104 c0 -100 -1 -103 -18 -88 -22 20 -71 22 -96 4 -11 -8 -20 -31 -23 -58 -10
-101 64 -154 114 -80 13 19 23 29 23 22 0 -20 39 -51 65 -51 14 0 34 9 46 21
l20 20 20 -25 c31 -40 80 -31 107 18 9 19 10 19 16 -2 8 -24 53 -42 81 -32 46
17 46 16 43 445 l-3 407 -24 20 c-28 22 -67 18 -90 -10 -14 -16 -16 -16 -37 5
-30 30 -69 29 -98 -2 -19 -20 -25 -22 -29 -11 -8 20 -37 33 -65 28z m49 -52
c11 -39 -2 -783 -13 -798 -14 -16 -28 -15 -50 5 -17 15 -18 41 -18 400 0 253
4 391 11 404 15 29 61 22 70 -11z m133 13 c11 -29 7 -783 -5 -804 -13 -24 -45
-25 -58 0 -11 20 -17 793 -6 810 10 18 62 13 69 -6z m125 3 c18 -21 16 -806
-1 -818 -19 -11 -42 -10 -56 4 -18 18 -17 814 1 821 23 10 45 7 56 -7z m-398
-8 c0 -7 2 -36 5 -64 5 -55 -9 -79 -42 -72 -33 6 -42 100 -13 135 14 16 49 17
50 1z m7 -412 c4 -59 -13 -106 -39 -106 -25 0 -39 30 -39 87 0 56 14 75 50 71
22 -3 25 -8 28 -52z m0 -317 c6 -69 -31 -112 -66 -77 -13 13 -17 100 -5 112 4
4 21 6 38 4 27 -3 30 -7 33 -39z"/>
</g>
</svg>
