<svg xmlns="http://www.w3.org/2000/svg" width="90" height="90" viewBox="0 0 90.000000 90.000000" preserveAspectRatio="xMidYMid meet" role="img" aria-hidden="true">
<g fill="#000000" stroke="none" transform="translate(0.000000,90.000000) scale(0.100000,-0.100000)">
<path d="M310 890 c-25 -5 -57 -13 -72 -19 -37 -14 -128 -87 -151 -120 -97
-141 -114 -411 -32 -509 20 -24 22 -31 10 -35 -8 -4 -26 -24 -41 -46 -32 -49
-27 -80 21 -128 27 -27 40 -33 76 -33 59 0 112 16 134 40 18 19 18 19 46 -5
17 -13 49 -27 75 -31 64 -9 181 2 209 20 21 14 26 13 61 -5 43 -21 135 -26
181 -8 50 19 73 48 73 94 0 48 -35 95 -70 95 -21 0 -27 15 -9 25 14 10 55 102
70 158 19 76 8 253 -20 309 -46 95 -176 180 -303 198 -74 11 -194 11 -258 0z
m264 -30 c85 -14 178 -63 231 -122 55 -61 69 -119 63 -267 -3 -94 -7 -113 -33
-165 -56 -109 -112 -126 -402 -120 -208 5 -281 17 -335 56 -53 37 -62 69 -61
218 0 122 3 140 26 192 46 103 148 193 234 208 69 11 208 11 277 0z m-414
-690 c16 -16 18 -25 10 -40 -6 -11 -20 -20 -30 -20 -11 0 -20 -4 -20 -10 0
-17 39 -11 60 10 11 11 20 29 20 41 0 15 4 19 16 15 9 -3 24 -6 35 -6 22 0 24
-21 8 -68 -8 -22 -24 -37 -56 -53 -42 -20 -51 -21 -92 -10 -78 20 -102 73 -60
132 25 36 78 40 109 9z m677 4 c27 -7 47 -55 39 -89 -5 -18 -19 -31 -44 -42
-43 -19 -140 -20 -172 -3 -21 11 -67 96 -57 106 2 3 27 8 54 13 l49 7 -4 -28
c-3 -18 2 -36 13 -48 19 -21 69 -27 80 -10 3 5 -3 10 -14 10 -34 0 -51 12 -51
36 0 40 50 63 107 48z m-290 -20 c24 -5 31 -13 40 -47 8 -27 8 -46 2 -54 -17
-20 -109 -36 -181 -31 -57 5 -75 10 -94 30 -21 21 -24 30 -18 66 l7 42 107 0
c59 0 121 -3 137 -6z"/>
<path d="M320 826 c-25 -7 -59 -20 -76 -29 -47 -25 -113 -104 -146 -177 -28
-61 -30 -71 -26 -165 5 -122 27 -174 88 -205 36 -18 58 -20 271 -20 217 0 236
1 277 21 38 19 49 32 77 90 26 55 33 85 39 162 8 111 0 138 -62 208 -53 58
-128 92 -251 113 -109 19 -130 19 -191 2z m66 -66 l0 -51 -45 7 c-25 4 -61 13
-80 21 -29 12 -32 16 -20 28 18 18 86 43 119 44 23 1 25 -2 26 -49z m60 34
c-3 -9 -6 -31 -6 -50 0 -40 -16 -45 -31 -10 -16 35 -4 76 22 76 15 0 19 -5 15
-16z m54 -23 c0 -16 3 -37 6 -46 5 -13 2 -16 -17 -13 -26 3 -34 25 -25 64 9
35 36 31 36 -5z m155 -13 c39 -20 39 -21 16 -30 -14 -5 -50 -11 -80 -15 -53
-5 -57 -4 -70 20 -8 14 -11 33 -7 42 5 14 14 16 53 10 26 -4 66 -16 88 -27z
m-392 -39 c35 -18 64 -22 192 -26 114 -3 163 -1 205 11 31 8 59 11 64 6 12
-12 -87 -38 -164 -43 -130 -8 -382 36 -364 64 8 13 21 11 67 -12z m-73 -18 c0
-5 -7 -11 -14 -14 -10 -4 -13 -1 -9 9 6 15 23 19 23 5z m576 -56 c-8 -5 -29
-18 -46 -27 -17 -10 -36 -31 -43 -47 -11 -26 -14 -28 -32 -15 -27 20 -68 17
-93 -6 -28 -26 -28 -57 0 -87 27 -29 65 -30 94 -2 l22 21 7 -34 c5 -19 24 -48
47 -70 44 -40 43 -60 -7 -92 -31 -20 -41 -15 -50 24 -11 49 -48 84 -137 126
-81 38 -85 39 -194 39 l-112 0 60 32 c32 17 65 36 72 42 9 8 22 7 44 -5 29
-14 37 -14 88 1 57 17 114 60 114 88 0 10 19 18 58 26 31 6 64 16 72 21 10 6
20 4 33 -8 16 -14 16 -18 3 -27z m-441 11 c57 -38 37 -82 -62 -131 -30 -16
-79 -50 -108 -77 l-53 -48 -4 67 c-6 92 17 160 63 191 29 20 42 23 87 19 30
-3 64 -13 77 -21z m69 -30 c8 -18 19 -37 26 -41 19 -12 78 4 110 31 38 32 59
28 31 -7 -35 -45 -154 -65 -171 -29 -17 35 -28 80 -19 80 5 0 15 -15 23 -34z
m121 14 c7 -11 -46 -40 -73 -40 -18 0 -32 18 -32 41 0 12 97 12 105 -1z m275
-21 c0 -5 -14 -15 -30 -21 -39 -13 -50 -35 -50 -98 0 -51 22 -88 61 -102 10
-4 11 -9 3 -17 -9 -9 -18 -5 -41 18 -31 31 -43 67 -43 130 0 43 13 63 55 85
36 18 45 19 45 5z m10 -33 c0 -3 -4 -8 -10 -11 -5 -3 -10 -1 -10 4 0 6 5 11
10 11 6 0 10 -2 10 -4z m-44 -28 c-23 -32 -20 -66 10 -105 28 -37 29 -49 3
-30 -39 29 -53 112 -23 141 22 23 28 20 10 -6z m44 -7 c0 -5 -7 -12 -16 -15
-24 -9 -28 -7 -14 9 14 17 30 20 30 6z m-175 -10 c3 -5 -5 -11 -17 -13 -33 -4
-35 -36 -4 -44 29 -7 26 -24 -4 -24 -39 0 -58 60 -26 82 15 11 44 10 51 -1z
m40 -31 c4 -6 -7 -10 -27 -9 -27 0 -30 2 -13 9 27 12 33 12 40 0z m120 0 c-3
-5 -11 -10 -16 -10 -6 0 -7 5 -4 10 3 6 11 10 16 10 6 0 7 -4 4 -10z m9 -36
c4 -10 1 -14 -6 -12 -15 5 -23 28 -10 28 5 0 13 -7 16 -16z m-361 -29 c71 -18
145 -55 174 -87 23 -25 59 -103 42 -93 -5 4 -16 22 -24 41 -26 62 -170 134
-268 134 -73 0 -160 -23 -207 -54 -39 -26 -64 -21 -32 6 68 60 202 83 315 53z
m-29 -81 c3 -31 13 -69 21 -85 15 -29 15 -29 -13 -29 -38 0 -94 55 -110 107
-18 61 -17 63 42 63 l53 0 7 -56z m-126 0 c7 -26 22 -60 33 -75 l20 -29 -34 0
c-46 0 -84 32 -99 82 -11 36 -10 42 7 54 38 28 60 18 73 -32z m202 29 c34 -15
40 -22 40 -48 0 -16 7 -43 15 -59 8 -15 15 -30 15 -33 0 -2 -19 -3 -42 -1 -35
2 -45 8 -60 34 -22 38 -36 124 -19 124 6 0 29 -8 51 -17z m-277 -106 c16 -25
16 -27 1 -27 -21 0 -84 47 -84 62 0 7 10 23 23 36 l22 24 10 -34 c6 -19 18
-46 28 -61z m391 30 c8 -12 17 -33 21 -45 6 -20 4 -23 -11 -20 -22 4 -64 63
-64 90 0 16 3 17 20 8 11 -6 26 -21 34 -33z"/>
<path d="M163 625 c-33 -33 -37 -55 -10 -55 23 0 86 60 80 75 -9 24 -33 17
-70 -20z m46 2 c-2 -1 -13 -9 -24 -17 -19 -14 -19 -14 -6 3 7 9 18 17 24 17 6
0 8 -1 6 -3z"/>
<path d="M415 94 c-18 -18 -16 -33 7 -47 21 -14 48 -2 48 22 0 30 -34 45 -55
25z m30 -24 c3 -5 1 -10 -4 -10 -6 0 -11 5 -11 10 0 6 2 10 4 10 3 0 8 -4 11
-10z"/>
</g>
</svg>
